<?xml version="1.0" standalone="no"?><!DOCTYPE svg PUBLIC "-//W3C//DTD SVG 1.1//EN" "http://www.w3.org/Graphics/SVG/1.1/DTD/svg11.dtd"><svg height="1024" node-id="1" sillyvg="true" template-height="1024" template-width="1024" version="1.1" viewBox="0 0 1024 1024" width="1024" xmlns="http://www.w3.org/2000/svg" xmlns:xlink="http://www.w3.org/1999/xlink"><defs node-id="12"></defs><path d="M 0.00 0.00 L 1024.00 0.00 L 1024.00 1024.00 L 0.00 1024.00 Z" fill="#ffffff" fill-rule="nonzero" hidden="true" node-id="14" stroke="none" target-height="1024" target-width="1024" target-x="0" target-y="0" visibility="hidden"></path><path d="M 391.00 462.30 L 393.90 454.80 L 397.10 447.60 L 400.60 440.70 L 404.40 434.00 L 410.00 425.40 L 416.00 417.10 L 422.40 409.10 L 432.50 397.40 L 464.80 363.60 L 475.40 352.20 L 485.50 340.50 L 492.00 332.40 L 498.00 324.00 L 503.60 315.30 L 508.60 323.30 L 514.00 331.00 L 519.70 338.40 L 528.80 349.10 L 538.20 359.50 L 567.70 389.70 L 577.30 400.00 L 589.40 414.20 L 595.10 421.60 L 600.50 429.20 L 605.40 437.20 L 610.00 445.40 L 615.60 456.40 L 620.80 467.60 L 625.50 478.90 L 629.90 490.40 L 637.50 513.90 L 640.80 525.80 L 646.10 549.90 L 648.20 562.00 L 651.20 586.40 L 646.20 600.80 L 623.30 657.80 L 618.20 672.30 L 615.00 661.60 L 611.40 651.20 L 607.40 640.90 L 600.70 625.80 L 593.60 610.90 L 586.10 596.10 L 563.00 552.00 L 555.80 537.10 L 549.10 522.00 L 545.00 511.80 L 541.20 501.40 L 537.90 490.80 L 534.70 482.20 L 531.90 472.80 L 528.40 464.00 L 526.90 461.40 L 523.10 456.90 L 520.80 455.10 L 518.00 453.60 L 514.80 452.50 L 511.40 452.10 L 508.50 452.20 L 505.90 452.60 L 503.60 453.40 L 500.70 455.00 L 498.10 457.10 L 495.80 459.70 L 492.10 465.70 L 488.50 474.50 L 479.50 500.70 L 475.50 511.20 L 471.20 521.50 L 464.00 536.70 L 456.30 551.70 L 431.70 596.00 L 418.50 620.80 L 409.00 641.10 L 404.70 651.50 L 400.80 662.10 L 397.40 672.90 L 392.80 660.30 L 388.80 647.50 L 385.30 634.50 L 382.30 621.40 L 379.90 608.10 L 378.00 594.80 L 376.70 581.50 L 376.00 568.00 L 375.80 554.50 L 376.20 541.10 L 377.20 527.70 L 378.70 514.40 L 380.90 501.10 L 383.70 488.00 L 387.00 475.10 L 391.00 462.30 Z" fill="#f9a89c" fill-rule="nonzero" node-id="16" stroke="none" target-height="357.60004" target-width="275.40002" target-x="375.8" target-y="315.3"></path><path d="M 474.50 134.30 L 490.00 110.60 L 493.50 106.20 L 498.80 101.20 L 501.60 99.40 L 504.50 98.00 L 507.70 97.20 L 511.00 97.00 L 516.10 98.00 L 522.20 100.90 L 527.90 108.40 L 533.30 116.10 L 548.60 139.90 L 553.90 147.70 L 559.60 155.20 L 573.40 171.00 L 581.30 179.10 L 589.60 186.80 L 607.10 201.20 L 630.10 217.90 L 658.30 237.40 L 681.30 254.10 L 698.80 268.50 L 707.20 276.10 L 715.20 284.30 L 729.70 300.60 L 736.10 308.70 L 741.90 317.10 L 747.30 325.90 L 752.20 334.90 L 756.50 344.10 L 760.30 353.60 L 763.60 363.30 L 766.40 373.20 L 768.60 383.20 L 770.30 393.30 L 771.40 403.50 L 772.00 413.70 L 772.00 424.00 L 771.40 434.30 L 770.30 444.60 L 784.50 432.80 L 799.10 421.30 L 809.10 414.00 L 819.30 407.10 L 829.70 400.50 L 840.40 394.30 L 851.40 388.70 L 865.80 382.10 L 869.10 381.20 L 872.40 380.90 L 875.70 381.00 L 878.90 381.60 L 882.00 382.60 L 885.00 384.10 L 887.80 386.00 L 890.30 388.20 L 892.50 390.70 L 894.30 393.60 L 895.70 396.70 L 894.80 405.40 L 890.20 431.40 L 888.90 440.10 L 888.30 448.90 L 888.20 457.70 L 888.40 466.50 L 889.10 475.20 L 890.70 488.30 L 896.90 527.60 L 898.60 540.70 L 899.80 553.80 L 900.10 562.60 L 899.90 571.40 L 898.20 590.80 L 896.50 601.10 L 894.40 611.30 L 891.70 621.40 L 888.50 631.30 L 884.90 641.10 L 880.90 650.70 L 876.50 660.10 L 871.60 669.40 L 861.00 687.40 L 855.10 696.10 L 846.90 707.50 L 838.30 718.40 L 829.30 728.90 L 851.80 722.20 L 863.30 719.20 L 874.90 716.70 L 886.50 714.70 L 898.20 713.10 L 915.90 711.90 L 924.70 711.90 L 936.50 712.50 L 939.30 713.30 L 941.80 714.50 L 944.10 716.00 L 946.20 717.90 L 948.00 720.10 L 950.70 725.10 L 951.50 727.80 L 951.90 730.60 L 951.90 733.30 L 951.50 736.00 L 950.60 738.60 L 949.20 741.10 L 947.20 743.40 L 940.00 749.50 L 932.40 755.20 L 909.10 771.50 L 887.70 788.60 L 874.10 800.40 L 820.50 848.80 L 806.80 860.40 L 792.80 871.60 L 783.20 878.70 L 773.40 885.50 L 763.30 891.90 L 753.00 897.90 L 742.20 903.40 L 731.20 908.40 L 720.30 912.80 L 709.40 916.60 L 698.40 919.80 L 687.30 922.40 L 676.10 924.40 L 664.80 925.80 L 653.40 926.80 L 642.00 927.10 L 630.50 927.00 L 619.10 926.50 L 607.70 925.40 L 596.20 924.00 L 573.50 919.80 L 551.20 914.20 L 536.40 909.60 L 522.00 904.60 L 507.90 899.00 L 493.70 904.40 L 479.20 909.40 L 464.30 913.90 L 453.10 916.90 L 430.50 921.80 L 419.00 923.80 L 407.50 925.30 L 396.00 926.40 L 384.50 927.10 L 373.00 927.20 L 361.50 926.90 L 350.10 926.10 L 338.70 924.70 L 327.40 922.80 L 318.50 920.90 L 309.60 918.50 L 300.80 915.70 L 292.00 912.60 L 283.30 909.00 L 266.50 900.90 L 250.60 891.70 L 240.40 884.90 L 230.50 877.80 L 211.60 862.50 L 193.30 846.20 L 140.10 795.00 L 126.50 782.60 L 112.50 770.60 L 103.00 762.90 L 93.10 755.60 L 83.00 748.70 L 80.50 747.30 L 76.50 744.00 L 75.10 742.00 L 73.50 739.10 L 72.50 736.00 L 72.00 732.80 L 72.10 729.50 L 72.60 726.30 L 73.60 723.20 L 75.10 720.30 L 77.00 717.80 L 79.40 715.70 L 81.50 714.40 L 86.30 712.80 L 97.70 712.20 L 106.20 712.30 L 123.10 713.60 L 134.30 715.20 L 145.50 717.20 L 156.60 719.80 L 167.50 722.70 L 189.20 729.40 L 173.20 709.10 L 165.60 698.60 L 158.30 687.80 L 151.50 676.80 L 145.10 665.60 L 136.60 648.20 L 129.40 630.20 L 126.40 621.10 L 123.90 611.70 L 121.80 602.20 L 118.90 584.20 L 118.00 575.90 L 117.70 567.60 L 118.20 551.00 L 120.40 530.30 L 126.00 493.10 L 127.60 480.70 L 128.70 468.30 L 129.10 460.00 L 128.70 443.50 L 127.80 435.20 L 126.40 427.00 L 124.30 418.70 L 122.40 412.30 L 121.60 405.50 L 122.00 398.90 L 122.70 395.70 L 125.10 390.00 L 126.90 387.50 L 129.00 385.30 L 131.60 383.50 L 134.50 382.20 L 137.90 381.40 L 141.90 381.00 L 151.30 384.10 L 160.50 387.60 L 169.40 391.70 L 178.20 396.30 L 186.80 401.20 L 195.20 406.50 L 207.50 414.90 L 219.50 423.80 L 242.70 442.30 L 241.60 432.90 L 241.10 423.40 L 241.10 414.00 L 241.50 404.60 L 242.40 395.10 L 243.80 385.90 L 245.70 376.70 L 248.00 367.50 L 250.80 358.50 L 254.10 349.80 L 257.80 341.10 L 262.00 332.70 L 266.60 324.50 L 271.70 316.60 L 277.30 309.00 L 289.10 294.40 L 301.50 281.00 L 308.10 274.70 L 317.10 266.60 L 326.50 258.90 L 336.20 251.50 L 351.00 240.80 L 406.30 202.80 L 425.50 188.00 L 434.70 180.20 L 443.60 172.00 L 452.00 163.40 L 458.10 156.60 L 463.80 149.50 L 469.30 142.10 L 474.50 134.30 Z M 416.50 240.20 L 389.90 257.60 L 363.70 275.80 L 355.20 282.30 L 338.90 295.80 L 331.10 303.00 L 323.70 310.50 L 316.60 318.30 L 309.80 326.50 L 303.60 335.00 L 297.70 344.10 L 293.60 351.10 L 290.00 358.30 L 286.90 365.70 L 284.30 373.20 L 282.20 380.90 L 280.50 388.70 L 279.20 396.60 L 278.40 404.60 L 277.90 420.70 L 278.20 428.80 L 278.90 436.80 L 280.40 447.50 L 282.30 458.00 L 284.90 468.40 L 287.00 475.50 L 289.60 482.50 L 292.60 489.10 L 299.60 502.00 L 303.50 508.20 L 309.80 517.20 L 316.50 526.10 L 337.10 552.40 L 343.60 561.20 L 345.00 543.50 L 346.90 525.70 L 348.60 513.90 L 353.10 490.60 L 355.90 479.10 L 359.30 467.80 L 363.20 456.60 L 366.50 448.40 L 374.10 432.30 L 378.50 424.50 L 383.60 415.70 L 389.10 407.20 L 395.00 399.00 L 407.80 383.30 L 424.90 364.60 L 456.70 331.80 L 464.40 322.80 L 472.70 310.70 L 486.40 287.90 L 491.10 280.40 L 496.30 273.30 L 499.50 272.30 L 504.80 271.80 L 507.00 272.10 L 509.90 273.10 L 512.50 274.60 L 514.80 276.50 L 516.90 278.90 L 520.70 284.50 L 527.90 298.60 L 534.40 309.80 L 538.70 316.60 L 543.40 323.20 L 550.90 332.60 L 558.90 341.70 L 584.10 368.10 L 600.30 386.10 L 614.50 404.40 L 620.70 413.50 L 626.50 422.80 L 632.00 432.20 L 638.70 445.20 L 644.80 458.50 L 650.40 472.00 L 655.50 485.70 L 660.20 499.60 L 664.40 513.60 L 670.30 534.90 L 675.50 556.10 L 704.90 518.30 L 709.40 511.70 L 717.70 498.20 L 721.20 491.10 L 724.30 483.80 L 726.80 476.10 L 731.10 459.20 L 734.00 441.90 L 734.90 433.10 L 735.30 424.40 L 735.30 415.60 L 734.90 406.90 L 734.00 398.10 L 732.60 389.50 L 730.80 381.10 L 728.50 372.70 L 725.60 364.50 L 722.20 356.40 L 718.30 348.60 L 709.20 334.00 L 699.40 320.90 L 694.00 314.80 L 686.60 306.90 L 678.80 299.40 L 662.30 285.30 L 644.80 272.10 L 591.10 234.80 L 583.10 228.80 L 567.80 216.10 L 560.50 209.30 L 551.20 199.90 L 542.30 190.10 L 533.80 179.90 L 525.60 169.40 L 517.80 158.70 L 510.40 147.60 L 501.60 159.40 L 492.40 170.90 L 482.80 182.20 L 472.90 193.00 L 462.50 203.40 L 451.70 213.40 L 443.30 220.60 L 434.70 227.40 L 425.70 234.00 L 416.50 240.20 Z M 391.00 462.30 L 387.00 475.10 L 383.70 488.00 L 380.90 501.10 L 378.70 514.40 L 377.20 527.70 L 376.20 541.10 L 375.80 554.50 L 376.00 568.00 L 376.70 581.50 L 378.00 594.80 L 379.90 608.10 L 382.30 621.40 L 385.30 634.50 L 388.80 647.50 L 392.80 660.30 L 397.40 672.90 L 400.80 662.10 L 404.70 651.50 L 409.00 641.10 L 416.00 625.90 L 423.70 610.80 L 431.70 596.00 L 456.30 551.70 L 464.00 536.70 L 471.20 521.50 L 475.50 511.20 L 479.50 500.70 L 488.50 474.50 L 492.10 465.70 L 495.80 459.70 L 498.10 457.10 L 500.70 455.00 L 503.60 453.40 L 505.90 452.60 L 508.50 452.20 L 511.40 452.10 L 514.80 452.50 L 518.00 453.60 L 520.80 455.10 L 523.10 456.90 L 526.90 461.40 L 528.40 464.00 L 531.90 472.80 L 534.70 482.20 L 537.90 490.80 L 541.20 501.40 L 545.00 511.80 L 549.10 522.00 L 555.80 537.10 L 563.00 552.00 L 586.10 596.10 L 593.60 610.90 L 600.70 625.80 L 607.40 640.90 L 611.40 651.20 L 615.00 661.60 L 618.20 672.30 L 623.30 657.80 L 646.20 600.80 L 651.20 586.40 L 648.20 562.00 L 643.60 537.80 L 637.50 513.90 L 629.90 490.40 L 625.50 478.90 L 620.80 467.60 L 615.60 456.40 L 610.00 445.40 L 605.40 437.20 L 600.50 429.20 L 595.10 421.60 L 589.40 414.20 L 577.30 400.00 L 567.70 389.70 L 538.20 359.50 L 528.80 349.10 L 519.70 338.40 L 514.00 331.00 L 508.60 323.30 L 503.60 315.30 L 498.00 324.00 L 492.00 332.40 L 485.50 340.50 L 475.40 352.20 L 464.80 363.60 L 432.50 397.40 L 422.40 409.10 L 416.00 417.10 L 410.00 425.40 L 404.40 434.00 L 400.60 440.70 L 397.10 447.60 L 393.90 454.80 L 391.00 462.30 Z M 631.20 744.80 L 630.00 752.30 L 628.20 759.50 L 626.00 766.50 L 620.20 780.00 L 616.70 786.60 L 611.10 796.20 L 586.30 833.60 L 580.50 843.10 L 595.70 838.70 L 610.60 833.90 L 625.40 828.50 L 640.00 822.50 L 654.30 816.00 L 668.40 809.10 L 682.30 801.70 L 695.90 793.70 L 709.20 785.30 L 722.20 776.50 L 734.90 767.20 L 747.30 757.40 L 759.30 747.30 L 771.00 736.70 L 782.30 725.80 L 793.20 714.40 L 801.50 705.30 L 809.50 695.90 L 817.30 686.00 L 824.70 675.80 L 831.60 665.30 L 838.10 654.60 L 846.70 637.90 L 853.80 620.70 L 856.80 611.80 L 859.30 602.90 L 861.30 593.90 L 862.90 584.70 L 863.90 575.50 L 864.40 566.20 L 864.30 556.70 L 863.60 547.20 L 857.20 501.20 L 855.40 485.90 L 853.70 465.40 L 853.30 444.90 L 853.70 434.60 L 854.50 424.20 L 840.00 432.80 L 825.80 441.80 L 812.00 451.40 L 798.40 461.60 L 785.30 472.20 L 772.60 483.30 L 760.30 494.80 L 748.40 506.80 L 736.90 519.20 L 726.00 532.00 L 715.50 545.20 L 705.50 558.80 L 697.90 569.90 L 690.60 581.30 L 683.70 592.80 L 677.10 604.50 L 670.90 616.50 L 665.10 628.60 L 659.70 641.00 L 654.60 653.40 L 650.00 666.00 L 645.80 678.90 L 642.00 691.80 L 638.60 704.80 L 635.70 718.00 L 633.20 731.30 L 631.20 744.80 Z M 162.80 425.30 L 163.80 437.50 L 164.30 449.60 L 164.20 461.60 L 163.60 473.70 L 161.20 497.80 L 154.70 542.00 L 154.00 550.10 L 153.80 558.10 L 153.90 566.20 L 154.50 574.20 L 155.80 584.20 L 157.60 594.00 L 159.90 603.80 L 162.80 613.50 L 166.20 623.00 L 170.00 632.40 L 174.20 641.60 L 178.80 650.60 L 183.80 659.50 L 194.70 676.50 L 200.60 684.60 L 209.50 696.10 L 218.80 707.30 L 228.50 718.20 L 238.50 728.70 L 248.90 738.90 L 259.60 748.80 L 270.60 758.40 L 281.90 767.50 L 293.50 776.30 L 305.50 784.70 L 317.70 792.70 L 330.10 800.20 L 342.80 807.30 L 355.70 814.00 L 368.80 820.20 L 382.20 825.90 L 395.70 831.20 L 409.50 835.90 L 423.40 840.10 L 437.50 843.90 L 407.20 797.80 L 399.90 786.10 L 392.90 774.20 L 390.00 765.70 L 387.60 757.10 L 385.70 748.30 L 379.30 713.00 L 373.50 690.20 L 369.30 676.40 L 364.60 662.70 L 359.50 649.20 L 353.80 635.90 L 347.80 622.80 L 341.30 609.90 L 334.40 597.30 L 327.00 584.80 L 319.30 572.60 L 311.20 560.70 L 302.70 549.00 L 293.80 537.60 L 284.60 526.50 L 275.00 515.70 L 265.10 505.10 L 254.90 494.90 L 244.30 485.00 L 233.50 475.50 L 222.40 466.20 L 210.90 457.30 L 199.30 448.70 L 187.40 440.60 L 175.20 432.80 L 162.80 425.30 Z M 428.50 711.00 L 428.30 720.10 L 428.70 728.90 L 429.60 737.60 L 431.20 746.20 L 433.20 754.70 L 435.80 763.00 L 438.80 771.10 L 442.40 779.10 L 446.30 786.90 L 450.60 794.50 L 455.20 801.90 L 460.30 809.20 L 467.40 818.60 L 475.10 827.60 L 483.10 836.30 L 491.60 844.60 L 500.20 852.40 L 509.10 859.80 L 517.70 852.30 L 526.20 844.40 L 534.40 836.00 L 542.30 827.30 L 549.80 818.30 L 556.80 808.90 L 566.40 794.20 L 574.50 778.80 L 577.90 770.90 L 580.90 762.80 L 583.50 754.60 L 585.50 746.20 L 587.10 737.70 L 588.00 729.00 L 588.40 720.20 L 588.20 711.20 L 587.40 702.30 L 586.30 693.50 L 584.70 685.00 L 582.60 676.60 L 579.40 665.60 L 575.60 654.80 L 571.20 644.10 L 561.50 623.20 L 531.20 566.60 L 523.40 551.00 L 518.50 540.50 L 514.10 529.80 L 510.00 519.00 L 505.70 529.80 L 501.00 540.40 L 495.90 550.90 L 487.60 566.40 L 461.60 612.50 L 456.10 622.80 L 446.00 643.70 L 441.50 654.40 L 437.60 665.20 L 434.20 676.30 L 432.10 684.70 L 430.50 693.20 L 429.30 702.00 L 428.50 711.00 Z M 143.40 748.60 L 156.50 760.00 L 169.40 771.90 L 207.30 808.60 L 220.10 820.60 L 228.80 828.40 L 246.70 843.20 L 255.90 850.20 L 265.50 856.80 L 275.30 863.00 L 282.80 867.30 L 298.60 875.00 L 314.90 881.50 L 323.00 884.10 L 331.10 886.20 L 339.40 887.80 L 350.50 889.40 L 361.60 890.40 L 372.90 890.70 L 384.20 890.50 L 395.40 889.90 L 406.70 888.80 L 423.50 886.60 L 440.10 883.90 L 425.00 879.80 L 409.90 875.40 L 395.00 870.40 L 380.20 865.10 L 365.60 859.30 L 351.20 852.90 L 337.10 846.20 L 323.20 838.90 L 309.50 831.10 L 296.20 822.80 L 283.20 814.00 L 261.10 797.60 L 251.40 791.20 L 241.40 785.30 L 231.10 779.80 L 220.60 774.80 L 209.90 770.20 L 188.10 762.00 L 160.20 753.30 L 143.40 748.60 Z M 746.40 804.80 L 733.40 814.00 L 720.20 822.80 L 706.60 831.00 L 692.70 838.70 L 678.60 845.90 L 664.20 852.60 L 649.70 858.90 L 634.90 864.70 L 619.90 870.10 L 604.80 875.10 L 589.60 879.70 L 574.30 883.90 L 596.70 887.40 L 608.00 888.80 L 619.40 889.70 L 630.70 890.20 L 642.10 890.30 L 653.40 889.80 L 664.70 888.80 L 675.90 887.10 L 684.20 885.50 L 692.40 883.30 L 700.50 880.80 L 717.20 874.30 L 725.60 870.50 L 741.60 862.00 L 751.80 855.70 L 761.90 849.00 L 771.60 841.80 L 790.50 826.70 L 799.70 818.70 L 854.00 769.80 L 863.20 761.90 L 882.20 746.90 L 864.30 751.70 L 834.60 760.60 L 811.20 769.00 L 799.80 773.80 L 788.60 778.90 L 777.60 784.60 L 769.50 789.10 L 753.90 799.20 L 746.40 804.80 Z" fill="#323841" fill-rule="nonzero" node-id="18" stroke="none" target-height="830.2" target-width="879.9" target-x="72" target-y="97"></path><path d="M 416.50 240.20 L 425.70 234.00 L 434.70 227.40 L 443.30 220.60 L 451.70 213.40 L 462.50 203.40 L 472.90 193.00 L 482.80 182.20 L 492.40 170.90 L 501.60 159.40 L 510.40 147.60 L 517.80 158.70 L 525.60 169.40 L 533.80 179.90 L 542.30 190.10 L 551.20 199.90 L 560.50 209.30 L 567.80 216.10 L 583.10 228.80 L 591.10 234.80 L 644.90 272.10 L 662.30 285.30 L 678.80 299.40 L 686.60 306.90 L 694.00 314.80 L 699.40 320.90 L 709.20 334.00 L 718.30 348.60 L 722.20 356.40 L 725.60 364.50 L 728.50 372.70 L 730.80 381.10 L 732.70 389.50 L 734.00 398.10 L 734.90 406.90 L 735.30 415.60 L 735.30 424.40 L 734.90 433.10 L 734.00 441.90 L 731.10 459.20 L 726.80 476.10 L 724.30 483.80 L 721.20 491.10 L 717.70 498.20 L 709.40 511.70 L 704.90 518.30 L 675.50 556.10 L 670.30 534.90 L 664.40 513.60 L 660.20 499.60 L 655.50 485.70 L 650.40 472.00 L 644.80 458.50 L 638.70 445.20 L 632.00 432.20 L 626.60 422.80 L 620.70 413.50 L 614.50 404.40 L 600.30 386.10 L 584.10 368.10 L 558.90 341.70 L 550.90 332.60 L 543.40 323.20 L 538.70 316.60 L 534.40 309.80 L 527.90 298.60 L 520.70 284.50 L 516.90 278.90 L 514.80 276.50 L 512.50 274.60 L 509.90 273.10 L 507.00 272.10 L 504.80 271.80 L 499.50 272.30 L 496.30 273.30 L 491.10 280.40 L 486.40 287.90 L 472.70 310.70 L 464.40 322.80 L 456.70 331.80 L 424.90 364.60 L 407.80 383.30 L 395.00 399.00 L 389.10 407.20 L 383.60 415.70 L 378.50 424.50 L 374.10 432.30 L 366.50 448.40 L 363.20 456.60 L 359.30 467.80 L 355.90 479.10 L 353.10 490.60 L 348.60 513.90 L 346.90 525.70 L 345.00 543.50 L 343.60 561.20 L 337.10 552.40 L 316.50 526.10 L 309.80 517.20 L 303.50 508.20 L 299.60 502.00 L 292.60 489.10 L 289.60 482.50 L 287.00 475.50 L 284.90 468.40 L 282.30 458.00 L 280.40 447.50 L 278.90 436.80 L 278.20 428.80 L 277.90 420.70 L 278.40 404.60 L 279.20 396.60 L 280.50 388.70 L 282.20 380.90 L 284.30 373.20 L 286.90 365.70 L 290.00 358.30 L 293.60 351.10 L 297.70 344.10 L 303.60 335.00 L 309.80 326.50 L 316.60 318.30 L 323.70 310.50 L 331.10 303.00 L 338.90 295.80 L 355.20 282.30 L 363.70 275.80 L 389.90 257.60 L 416.50 240.20 Z" fill="#dc595e" fill-rule="nonzero" node-id="20" stroke="none" target-height="413.6" target-width="457.4" target-x="277.9" target-y="147.6"></path><path d="M 631.20 744.80 L 633.20 731.30 L 635.70 718.00 L 638.60 704.80 L 642.00 691.80 L 645.80 678.90 L 650.00 666.00 L 654.60 653.40 L 659.70 641.00 L 665.10 628.60 L 670.90 616.50 L 677.10 604.50 L 683.70 592.80 L 690.60 581.30 L 697.90 569.90 L 705.50 558.80 L 715.50 545.20 L 726.00 532.00 L 736.90 519.20 L 748.40 506.80 L 760.30 494.80 L 772.60 483.30 L 785.30 472.20 L 798.40 461.60 L 812.00 451.40 L 825.80 441.80 L 840.00 432.80 L 854.50 424.20 L 853.70 434.60 L 853.30 444.90 L 853.70 465.40 L 855.40 485.90 L 857.20 501.20 L 863.60 547.20 L 864.30 556.70 L 864.40 566.20 L 863.90 575.50 L 862.90 584.70 L 861.30 593.90 L 859.30 602.90 L 856.80 611.80 L 853.80 620.70 L 846.70 637.90 L 838.10 654.60 L 831.60 665.30 L 824.70 675.80 L 817.30 686.00 L 809.50 695.90 L 801.50 705.30 L 793.20 714.40 L 782.30 725.80 L 771.00 736.70 L 759.30 747.30 L 747.30 757.40 L 734.90 767.20 L 722.20 776.50 L 709.20 785.30 L 695.90 793.70 L 682.30 801.70 L 668.40 809.10 L 654.30 816.00 L 640.00 822.50 L 625.40 828.50 L 610.60 833.90 L 595.70 838.70 L 580.50 843.10 L 586.30 833.60 L 611.10 796.20 L 616.70 786.60 L 620.20 780.00 L 626.00 766.50 L 628.20 759.50 L 630.00 752.30 L 631.20 744.80 Z" fill="#e6b054" fill-rule="nonzero" node-id="22" stroke="none" target-height="418.89996" target-width="283.90002" target-x="580.5" target-y="424.2"></path><path d="M 428.50 711.00 L 429.30 702.00 L 430.50 693.20 L 432.10 684.70 L 434.20 676.30 L 437.60 665.20 L 441.50 654.40 L 446.00 643.70 L 456.10 622.80 L 461.60 612.50 L 487.60 566.40 L 495.90 550.90 L 501.00 540.40 L 505.70 529.80 L 510.00 519.00 L 514.10 529.80 L 518.50 540.50 L 523.40 551.00 L 531.20 566.60 L 561.50 623.20 L 571.20 644.10 L 575.60 654.80 L 579.40 665.60 L 582.60 676.60 L 584.70 685.00 L 586.30 693.50 L 587.40 702.30 L 588.20 711.20 L 588.40 720.20 L 588.00 729.00 L 587.10 737.70 L 585.50 746.20 L 583.50 754.60 L 580.90 762.80 L 577.90 770.90 L 574.50 778.80 L 566.40 794.20 L 556.80 808.90 L 549.80 818.30 L 542.30 827.30 L 534.40 836.00 L 526.20 844.40 L 517.70 852.30 L 509.10 859.80 L 500.20 852.40 L 491.60 844.60 L 483.10 836.30 L 475.10 827.60 L 467.40 818.60 L 460.30 809.20 L 455.20 801.90 L 450.60 794.50 L 446.30 786.90 L 442.40 779.10 L 438.80 771.10 L 435.80 763.00 L 433.20 754.70 L 431.20 746.20 L 429.60 737.60 L 428.70 728.90 L 428.30 720.10 L 428.50 711.00 Z" fill="#e6b054" fill-rule="nonzero" node-id="24" stroke="none" target-height="340.8" target-width="160.10004" target-x="428.3" target-y="519"></path><path d="M 162.80 425.30 L 175.20 432.80 L 187.40 440.60 L 199.30 448.70 L 210.90 457.30 L 222.40 466.20 L 233.50 475.50 L 244.30 485.00 L 254.90 494.90 L 265.10 505.10 L 275.00 515.70 L 284.60 526.50 L 293.80 537.60 L 302.70 549.00 L 311.20 560.70 L 319.30 572.60 L 327.00 584.80 L 334.40 597.30 L 341.30 609.90 L 347.80 622.80 L 353.80 635.90 L 359.40 649.20 L 364.60 662.70 L 369.30 676.40 L 373.50 690.20 L 377.20 704.30 L 381.10 721.80 L 385.70 748.30 L 387.60 757.10 L 390.00 765.70 L 392.90 774.20 L 399.90 786.10 L 407.20 797.80 L 437.50 843.90 L 423.40 840.10 L 409.50 835.90 L 395.70 831.20 L 382.20 825.90 L 368.80 820.20 L 355.70 814.00 L 342.80 807.30 L 330.10 800.20 L 317.70 792.70 L 305.50 784.70 L 293.50 776.30 L 281.90 767.50 L 270.60 758.40 L 259.60 748.80 L 248.90 738.90 L 238.50 728.70 L 228.50 718.20 L 218.80 707.30 L 209.50 696.10 L 200.60 684.60 L 189.10 668.10 L 178.80 650.60 L 174.20 641.60 L 170.00 632.40 L 166.20 623.00 L 162.80 613.50 L 159.90 603.80 L 157.60 594.00 L 155.80 584.20 L 154.50 574.20 L 153.90 566.20 L 153.80 558.10 L 154.00 550.10 L 154.70 542.00 L 161.20 497.80 L 163.60 473.70 L 164.20 461.60 L 164.30 449.60 L 163.80 437.50 L 162.80 425.30 Z" fill="#e6b055" fill-rule="nonzero" node-id="26" stroke="none" target-height="418.60004" target-width="283.7" target-x="153.8" target-y="425.3"></path><path d="M 143.40 748.60 L 160.20 753.30 L 188.10 762.00 L 209.90 770.20 L 220.60 774.80 L 231.10 779.80 L 241.40 785.30 L 251.40 791.20 L 261.10 797.60 L 283.20 814.00 L 296.20 822.80 L 309.50 831.10 L 323.20 838.90 L 337.10 846.20 L 351.20 853.00 L 365.60 859.30 L 380.20 865.10 L 395.00 870.40 L 409.90 875.40 L 425.00 879.80 L 440.10 883.90 L 423.50 886.60 L 406.70 888.80 L 395.40 889.90 L 384.20 890.50 L 372.90 890.70 L 361.60 890.40 L 350.50 889.40 L 339.40 887.80 L 331.10 886.20 L 323.00 884.10 L 314.90 881.50 L 298.60 875.00 L 282.80 867.30 L 275.30 863.00 L 265.50 856.80 L 255.90 850.20 L 237.70 835.90 L 220.10 820.60 L 207.30 808.60 L 169.40 771.90 L 156.50 760.00 L 143.40 748.60 Z" fill="#d9d5c5" fill-rule="nonzero" node-id="28" stroke="none" target-height="142.10004" target-width="296.7" target-x="143.4" target-y="748.6"></path><path d="M 746.40 804.80 L 753.90 799.20 L 769.50 789.10 L 777.60 784.60 L 788.60 778.90 L 799.80 773.80 L 811.20 769.00 L 834.60 760.60 L 864.30 751.70 L 882.20 746.90 L 863.20 761.90 L 854.00 769.80 L 813.30 806.60 L 790.50 826.70 L 771.60 841.80 L 761.90 849.00 L 751.80 855.70 L 741.60 862.00 L 725.60 870.50 L 717.20 874.30 L 700.50 880.80 L 692.40 883.30 L 684.20 885.50 L 675.90 887.10 L 664.70 888.80 L 653.40 889.90 L 642.10 890.30 L 630.70 890.20 L 619.40 889.70 L 608.00 888.80 L 596.70 887.40 L 574.30 883.90 L 589.60 879.70 L 604.80 875.10 L 619.90 870.10 L 634.90 864.70 L 649.70 858.90 L 664.20 852.60 L 678.60 845.90 L 692.70 838.70 L 706.60 831.00 L 720.20 822.80 L 733.40 814.00 L 746.40 804.80 Z" fill="#d9d6c8" fill-rule="nonzero" node-id="30" stroke="none" target-height="143.39996" target-width="307.90002" target-x="574.3" target-y="746.9"></path></svg>